<svg class="img-fluid" id="outputsvg" xmlns="http://www.w3.org/2000/svg" style="transform: none; transform-origin: 50% 50%; cursor: move; max-height: none;" width="1056" height="264" viewBox="0 0 10560 2640"><g id="l2uy9SLZpCGIrzZWSKpgu1Y" fill="rgb(249,246,230)" style="transform: none;"><g><path id="pzfKG8R1M" d="M435 2630 c-115 -16 -212 -67 -295 -156 -58 -62 -82 -103 -112 -184 l-23 -65 0 -905 0 -905 23 -65 c30 -83 54 -122 115 -187 61 -64 122 -104 207 -135 l65 -23 4865 0 4865 0 65 23 c85 31 146 71 207 135 61 65 85 104 115 187 l23 65 0 905 0 905 -23 65 c-30 83 -54 122 -115 187 -61 64 -122 104 -207 135 l-65 23 -4825 1 c-2654 1 -4852 -2 -4885 -6z m1241 -214 c83 -18 208 -62 279 -99 45 -24 47 -26 22 -27 l-28 0 5 -188 4 -189 54 -76 c44 -62 58 -77 83 -79 l30 -3 -44 -45 -45 -45 -6 35 c-3 19 -18 53 -33 75 -15 22 -27 43 -27 47 0 8 -22 38 -52 69 -9 9 -19 26 -23 38 -3 12 -12 21 -20 21 -7 0 -16 14 -20 30 -4 17 -12 30 -20 30 -9 0 -11 12 -7 45 l5 45 -37 0 c-20 0 -36 5 -36 10 0 6 -9 10 -20 10 -13 0 -20 7 -20 20 0 11 -5 20 -11 20 -5 0 -33 23 -61 50 -28 28 -55 50 -59 50 -5 0 -9 7 -9 15 0 8 -6 15 -14 15 -8 0 -16 7 -20 15 -3 8 -15 15 -26 15 -11 0 -20 5 -20 10 0 6 -9 10 -19 10 -10 0 -21 7 -25 15 -3 8 -14 15 -23 15 -10 0 -25 9 -33 20 -11 16 -26 20 -67 20 l-53 0 0 -43 c0 -30 7 -49 23 -67 12 -14 65 -79 116 -145 70 -89 90 -121 78 -123 -20 -4 -67 41 -67 63 0 8 -6 15 -12 15 -16 1 -68 46 -68 58 0 6 -11 17 -25 26 -14 9 -25 23 -25 31 0 8 -8 15 -19 15 -29 0 -111 71 -111 98 0 17 -6 22 -27 23 -39 1 56 35 167 60 99 22 249 20 366 -5z m-576 -65 c0 -5 -9 -11 -20 -14 -15 -4 -20 -14 -20 -40 0 -28 7 -41 33 -61 l32 -26 -37 0 c-36 0 -38 -2 -38 -32 0 -17 7 -40 17 -50 15 -17 14 -18 -21 -18 -49 0 -79 -33 -107 -118 -12 -37 -37 -97 -55 -134 -19 -37 -34 -78 -34 -90 -1 -23 -1 -23 -16 -3 -29 37 -72 130 -93 202 -20 68 -23 72 -54 75 l-32 3 64 62 c85 83 161 137 278 200 110 59 103 56 103 44z m1176 -309 c-23 -2 -36 -9 -38 -20 -2 -9 -4 9 -4 40 l1 57 38 -37 38 -37 -35 -3z m158 -173 l26 -47 -22 5 c-13 3 -30 11 -38 18 -8 7 -23 15 -34 19 -11 4 -16 12 -12 22 3 9 6 32 6 52 l0 37 24 -29 c12 -16 35 -51 50 -77z m-1857 4 c-3 -2 -15 -3 -26 -1 -20 3 -20 3 2 38 l22 35 3 -33 c2 -19 1 -36 -1 -39z m1217 -3 c20 -28 36 -53 36 -56 0 -3 13 -24 28 -47 45 -66 45 -67 23 -67 -11 0 -22 9 -26 20 -3 11 -12 20 -20 20 -7 0 -16 15 -19 33 -3 19 -22 59 -40 90 -43 70 -31 75 18 7z m-94 -115 l24 -40 -29 22 c-65 46 -111 92 -92 93 12 0 17 8 17 27 0 29 1 27 80 -102z m-350 90 l23 -25 -26 0 c-22 0 -27 5 -27 25 0 14 1 25 3 25 2 0 14 -11 27 -25z m-824 -135 c19 0 52 9 74 20 22 11 41 20 44 20 2 0 13 -14 24 -31 l20 -32 -45 -23 c-24 -13 -51 -24 -60 -24 -18 0 -165 -70 -176 -85 -8 -9 -6 1 10 60 3 11 19 56 37 100 l31 80 3 -42 c3 -42 4 -43 38 -43z m949 28 c5 -5 -8 -8 -28 -8 -35 0 -37 2 -37 32 l0 31 28 -24 c15 -13 31 -27 37 -31z m1060 -96 c15 -46 25 -86 21 -89 -3 -4 -6 1 -6 9 0 11 -14 17 -50 22 -27 4 -52 11 -55 16 -3 5 -24 14 -45 20 -22 6 -40 15 -40 20 0 6 -11 10 -25 10 -16 0 -25 6 -25 15 0 8 -9 15 -20 15 -19 0 -19 1 1 35 12 19 23 35 25 35 3 0 22 -9 44 -20 22 -11 57 -20 80 -20 38 0 40 1 40 33 l1 32 13 -25 c8 -14 26 -62 41 -108z m679 101 c109 -30 189 -135 172 -225 -13 -68 -81 -116 -253 -178 -51 -18 -104 -43 -118 -56 -22 -20 -25 -31 -25 -94 0 -62 3 -74 25 -95 21 -22 33 -25 95 -25 93 0 136 18 156 66 15 35 16 36 57 30 23 -4 43 -9 45 -11 2 -2 -10 -24 -27 -49 -44 -64 -119 -99 -209 -98 -78 0 -123 16 -176 62 -47 42 -66 79 -66 130 0 93 59 146 225 200 150 49 175 72 175 165 0 101 -38 130 -164 123 -62 -3 -79 -7 -100 -27 -14 -13 -29 -34 -32 -45 -4 -12 -12 -24 -18 -28 -14 -10 -86 -10 -86 -1 0 3 11 25 24 48 30 50 90 94 154 111 63 17 76 17 146 -3z m1425 1 c29 -8 69 -30 90 -50 27 -23 48 -34 70 -34 30 0 31 1 31 45 l0 45 50 0 50 0 0 -285 0 -285 -50 0 -50 0 0 40 c0 39 -1 40 -36 40 -26 0 -46 -9 -75 -34 -98 -83 -205 -70 -308 39 -137 144 -89 384 94 471 59 28 66 29 134 8z m2329 -20 c90 -44 143 -142 117 -218 -7 -20 -21 -46 -30 -56 -23 -25 -116 -73 -203 -104 -141 -50 -162 -70 -162 -153 0 -99 27 -123 139 -123 77 0 133 28 139 68 4 30 21 35 70 25 l39 -8 -23 -37 c-52 -82 -154 -124 -264 -108 -158 22 -247 164 -173 277 27 40 93 77 214 119 147 50 159 62 159 157 0 66 -3 76 -26 98 -22 21 -37 24 -107 27 -96 4 -133 -13 -161 -72 -16 -33 -20 -36 -61 -36 -44 0 -44 0 -34 28 13 34 65 89 104 110 91 48 172 50 263 6z m601 20 c29 -8 69 -30 90 -50 27 -23 48 -34 70 -34 30 0 31 1 31 45 l0 45 50 0 50 0 0 -285 0 -285 -50 0 -50 0 0 40 c0 40 0 40 -38 40 -28 0 -45 -7 -61 -24 -34 -37 -118 -69 -161 -63 -80 11 -169 78 -213 161 -31 59 -30 181 2 254 38 84 140 166 212 171 8 1 39 -6 68 -15z m839 -20 c28 -14 57 -34 62 -45 8 -13 21 -19 45 -19 35 0 35 0 35 45 l0 45 50 0 50 0 0 -285 0 -285 -50 0 -50 0 0 40 c0 38 -1 40 -31 40 -20 0 -45 -11 -69 -30 -42 -33 -108 -60 -149 -60 -40 0 -122 44 -163 86 -62 66 -83 118 -82 204 1 92 34 169 95 225 88 80 153 89 257 39z m-4705 -176 c5 -211 13 -251 50 -280 22 -17 22 -18 -15 -18 l-38 0 0 -145 0 -145 -45 0 -45 0 0 395 0 395 44 0 43 0 6 -202z m445 5 c-3 -115 -11 -211 -17 -228 -57 -145 -219 -199 -322 -107 l-30 27 95 0 c87 1 98 3 122 25 49 45 54 73 54 285 l0 195 51 0 52 0 -5 -197z m1102 83 c0 -63 3 -121 6 -130 4 -10 18 -16 38 -16 28 1 41 14 131 130 l100 129 44 1 c51 0 59 16 -76 -139 -83 -94 -93 -110 -93 -145 0 -40 11 -55 175 -243 l37 -43 -45 0 -44 0 -102 130 c-96 122 -105 130 -137 130 l-34 0 0 -241 0 -240 -47 3 -48 3 -3 393 -2 392 50 0 50 0 0 -114z m840 79 l0 -35 -48 0 c-87 0 -87 1 -90 -234 l-3 -206 70 0 71 0 0 -30 0 -30 -70 0 -70 0 0 -80 0 -80 -50 0 -50 0 0 80 0 80 -40 0 c-38 0 -40 2 -40 30 0 28 2 30 40 30 l40 0 0 133 c1 173 13 273 37 306 28 39 99 71 155 71 l48 0 0 -35z m280 -250 l0 -285 -45 0 -45 0 0 285 0 285 45 0 45 0 0 -285z m2770 251 l0 -34 -60 -4 c-33 -2 -63 -8 -67 -12 -10 -10 -21 -160 -22 -308 l-1 -118 75 0 75 0 0 -30 0 -30 -75 0 -75 0 0 -80 0 -80 -45 0 -44 0 -3 78 -3 77 -37 3 c-35 3 -38 6 -38 33 0 26 3 29 34 29 22 0 36 6 40 16 3 9 6 86 6 172 1 186 8 223 51 269 38 38 72 51 142 52 47 1 47 1 47 -33z m281 -163 c0 -217 7 -253 52 -287 23 -17 43 -21 105 -21 103 0 127 8 157 54 25 37 26 45 32 245 l6 206 44 0 45 0 -4 -202 c-3 -189 -5 -206 -26 -251 -30 -59 -81 -102 -140 -117 -62 -15 -115 -4 -168 36 -27 21 -55 34 -74 34 l-29 0 -3 -142 -3 -143 -45 0 -45 0 -3 393 -2 392 50 0 50 0 1 -197z m759 -88 l0 -285 -45 0 -45 0 0 285 0 285 45 0 45 0 0 -285z m-8212 175 c26 -1 25 -2 -11 -21 -22 -11 -40 -19 -42 -17 -1 2 -5 23 -8 48 l-6 45 21 -27 c13 -18 29 -28 46 -28z m-678 -35 c0 -8 -4 -15 -10 -15 -5 0 -10 -16 -10 -35 0 -33 2 -35 34 -35 19 0 37 6 39 13 4 8 6 7 7 -3 0 -8 15 -24 33 -35 21 -13 33 -30 35 -47 2 -19 10 -28 25 -30 33 -5 35 -38 3 -38 -14 0 -26 -5 -26 -12 0 -6 -26 -35 -58 -63 -31 -29 -64 -64 -71 -79 -8 -14 -22 -26 -31 -26 -21 0 -30 -43 -30 -145 0 -73 17 -115 46 -115 9 0 14 -10 14 -28 0 -20 15 -43 53 -83 29 -30 64 -75 78 -99 21 -39 29 -45 60 -48 33 -3 37 0 55 40 10 24 47 71 82 104 48 47 62 68 62 90 0 21 7 32 23 39 21 10 22 16 22 120 0 101 -2 115 -29 170 -37 75 -36 126 5 214 16 35 29 73 29 86 0 21 3 22 50 17 33 -3 50 -1 50 7 0 6 8 11 18 11 14 0 15 -2 2 -10 -9 -5 -19 -39 -26 -83 -13 -85 -33 -131 -75 -178 -37 -42 -37 -76 1 -135 133 -210 43 -477 -190 -560 -128 -45 -303 48 -376 201 -30 61 -34 79 -34 151 0 89 19 150 66 211 37 49 33 95 -14 148 -41 47 -57 87 -67 178 -6 46 -12 60 -31 70 l-23 12 25 12 c22 10 24 9 24 -13 0 -21 5 -24 38 -24 27 0 47 8 72 30 40 33 50 36 50 15z m-500 -76 c-37 -8 -90 -75 -90 -115 0 -11 -17 -14 -68 -14 l-67 0 -35 -45 c-19 -25 -40 -51 -45 -58 -18 -21 -45 -101 -45 -135 0 -18 -4 -32 -10 -32 -5 0 -10 -19 -11 -42 -1 -41 -2 -40 -22 32 -22 85 -28 303 -9 375 l10 40 1 -44 1 -44 48 6 c83 10 206 55 255 93 26 20 47 41 47 47 0 6 16 -5 36 -24 l35 -34 -31 -6z m1482 8 c39 -29 209 -87 256 -87 31 0 32 1 33 48 l1 47 14 -65 c36 -176 -1 -409 -93 -595 -148 -296 -374 -498 -677 -604 -167 -59 -301 -72 -461 -46 -390 63 -732 331 -884 693 -33 78 -49 127 -31 100 7 -12 23 -18 46 -18 29 0 43 9 85 53 69 72 99 136 99 209 0 49 3 58 18 58 14 0 17 -9 18 -48 0 -26 8 -64 17 -84 16 -38 16 -38 76 -38 l59 0 -1 179 -2 180 32 -25 c17 -13 40 -24 50 -24 30 0 50 -22 60 -66 10 -39 8 -45 -22 -82 -72 -91 -115 -234 -115 -384 0 -177 48 -296 169 -418 139 -140 240 -180 455 -180 225 0 327 39 461 174 92 93 139 172 160 273 17 81 19 241 4 315 -14 66 -58 160 -102 218 -33 43 -33 47 -23 90 10 39 15 45 40 48 27 3 142 86 175 126 13 15 15 15 32 -3 10 -11 33 -31 51 -44z m4085 -531 c24 -21 26 -26 15 -50 -21 -47 -76 -44 -103 6 -8 14 -4 24 15 43 31 31 38 31 73 1z m3807 3 c32 -25 33 -42 4 -69 -29 -26 -49 -25 -77 4 -19 20 -21 28 -12 45 10 19 37 40 52 41 4 0 18 -9 33 -21z"></path><path id="pysEFVEa8" d="M4545 1675 c-80 -28 -115 -99 -115 -232 0 -67 4 -86 23 -114 41 -61 80 -79 169 -79 96 0 139 18 174 70 52 79 41 252 -21 314 -52 52 -149 70 -230 41z"></path><path id="pkjxG9bAf" d="M7477 1676 c-84 -31 -117 -96 -117 -231 0 -69 4 -88 23 -116 41 -61 80 -79 169 -79 96 0 140 18 173 69 45 68 42 235 -5 300 -40 58 -164 87 -243 57z"></path><path id="pLzVdovMu" d="M8279 1680 c-45 -13 -79 -42 -102 -84 -18 -34 -22 -57 -22 -142 0 -95 2 -103 28 -137 41 -55 73 -67 170 -67 71 0 90 4 118 23 52 34 79 97 79 182 0 86 -13 135 -46 175 -40 47 -152 73 -225 50z"></path><path id="p7MkijwIf" d="M2112 1493 c-4 -10 -7 -65 -6 -123 0 -86 5 -114 24 -157 21 -50 24 -53 60 -53 53 0 60 21 53 166 -6 106 -9 120 -30 141 -12 13 -23 28 -23 33 0 18 -70 11 -78 -7z"></path><path id="ppsWkz3kJ" d="M2300 1323 c0 -130 14 -167 91 -248 47 -50 56 -55 95 -55 l44 0 0 40 c0 27 -4 40 -14 40 -9 0 -15 20 -19 65 -6 63 -38 145 -57 145 -6 0 -10 6 -10 14 0 8 -13 26 -30 39 -16 14 -30 35 -30 46 0 17 -6 21 -35 21 l-35 0 0 -107z"></path></g></g><g id="l1WIvBTOmaaGU9m2p4QEm3N" fill="rgb(18,59,51)" style="transform: none;"><g><path id="p1HcF8pxSK" d="M1296 2455 c-563 -117 -956 -586 -956 -1140 0 -341 198 -709 491 -911 310 -215 672 -270 1005 -153 303 106 529 308 677 604 124 250 142 553 47 831 -129 381 -459 674 -855 761 -100 21 -323 26 -409 8z m64 -85 c0 -5 16 -14 36 -19 32 -9 117 -66 164 -110 121 -113 189 -185 184 -192 -3 -5 0 -9 6 -9 6 0 8 -5 5 -11 -4 -6 2 -13 14 -16 11 -3 18 -10 15 -15 -3 -5 4 -12 16 -15 13 -3 19 -11 16 -19 -3 -8 -1 -14 4 -14 6 0 10 -7 10 -15 0 -8 7 -15 15 -15 14 0 19 -12 16 -33 -1 -4 11 -12 26 -18 20 -7 24 -12 14 -18 -9 -6 -6 -10 11 -15 19 -5 20 -8 8 -16 -13 -8 -13 -10 2 -10 21 0 72 -76 64 -95 -3 -8 0 -15 6 -17 13 -5 2 -28 -13 -28 -8 0 -119 163 -119 176 0 22 -172 222 -178 206 -2 -6 -10 -8 -18 -5 -21 8 -17 -22 11 -79 14 -27 22 -55 18 -60 -3 -6 -1 -8 4 -5 9 6 21 -18 21 -40 0 -3 7 -10 16 -15 9 -5 14 -13 11 -19 -4 -5 -1 -9 5 -9 6 0 8 -4 5 -10 -3 -5 -1 -10 5 -10 6 0 8 -4 5 -10 -3 -5 -1 -10 5 -10 7 0 10 -7 6 -15 -3 -8 -1 -15 4 -15 6 0 9 -3 9 -7 -3 -21 2 -33 16 -33 14 0 19 -12 16 -32 0 -5 10 -8 23 -8 16 0 26 -7 30 -22 12 -50 -27 -46 -60 5 -27 41 -81 127 -124 197 -67 109 -284 400 -357 480 -30 32 -29 50 2 50 14 0 25 -4 25 -10z m434 -70 l66 -21 0 -49 c0 -28 -1 -50 -3 -50 -1 0 -34 32 -72 70 -38 39 -67 70 -63 70 3 0 36 -9 72 -20z m-638 -26 c49 -45 83 -68 90 -62 2 3 -16 20 -40 39 -46 35 -56 49 -33 49 19 0 110 -96 103 -108 -3 -6 4 -18 16 -27 13 -8 23 -19 23 -24 0 -12 60 -61 75 -61 7 0 10 -7 6 -15 -3 -9 1 -18 9 -21 8 -4 12 -10 9 -15 -3 -5 0 -9 6 -9 6 0 18 -7 27 -15 8 -9 23 -15 32 -13 10 2 32 -19 63 -62 25 -36 44 -67 42 -69 -2 -2 -43 34 -92 80 -117 112 -241 223 -329 293 -40 32 -70 62 -67 67 9 15 19 11 60 -27z m945 -93 c105 -76 111 -85 92 -170 -20 -89 -72 -221 -86 -221 -13 0 -110 136 -114 160 -6 27 -9 280 -4 285 11 12 34 1 112 -54z m-796 -177 c116 -97 274 -228 353 -292 78 -63 140 -117 138 -120 -14 -14 -258 146 -376 247 -140 119 -357 341 -333 341 4 0 102 -80 218 -176z m-133 -41 l117 -116 -107 -113 -107 -112 -66 34 c-36 19 -80 50 -98 68 l-33 34 35 68 c19 38 44 99 56 136 20 60 58 118 78 118 4 0 60 -53 125 -117z m-461 -25 c40 -135 105 -240 183 -296 25 -18 81 -50 124 -72 l80 -39 6 -58 c11 -91 26 -131 68 -178 21 -24 38 -46 38 -50 0 -3 -11 -21 -24 -38 -52 -67 -66 -120 -66 -241 0 -106 2 -115 34 -181 59 -125 173 -203 307 -213 87 -6 145 10 220 60 69 46 130 132 150 210 19 74 17 202 -4 264 -10 28 -31 72 -47 97 l-28 45 28 32 c42 47 62 95 74 178 l10 73 93 44 c154 75 232 171 294 363 12 39 26 72 30 72 4 0 17 -12 28 -26 22 -28 28 -60 12 -66 -17 -6 59 -118 80 -118 10 0 25 -13 34 -30 9 -18 11 -30 5 -30 -6 0 -37 14 -70 30 -33 17 -63 30 -67 30 -5 0 -24 -26 -43 -57 -19 -32 -52 -78 -74 -102 -61 -66 -175 -154 -192 -147 -10 4 -14 -3 -14 -29 0 -24 22 -77 66 -163 37 -70 79 -161 94 -202 26 -73 28 -75 64 -78 23 -2 38 1 41 10 2 7 9 26 15 42 l11 29 52 -58 c99 -111 94 -99 65 -159 -64 -128 -187 -274 -312 -368 -216 -163 -509 -241 -746 -198 -313 57 -600 268 -750 552 l-34 66 68 78 c38 44 72 80 76 82 3 1 11 -15 16 -35 8 -35 12 -38 49 -41 l41 -3 22 68 c12 38 53 130 92 206 76 148 90 207 49 207 -49 0 -202 145 -259 246 -17 30 -36 54 -41 54 -5 0 -37 -14 -70 -31 -34 -17 -63 -28 -66 -25 -3 3 3 26 13 51 9 25 20 41 24 35 4 -6 14 -8 23 -4 22 8 49 51 37 59 -18 11 -10 41 22 83 18 23 36 42 40 42 4 0 17 -33 29 -72z m653 -154 c9 -3 16 -12 16 -19 0 -13 -197 -175 -213 -175 -17 0 17 44 93 120 43 44 81 80 83 80 3 0 12 -3 21 -6z m216 -155 c63 -39 116 -73 118 -74 1 -1 -11 -31 -28 -66 -16 -35 -30 -82 -31 -104 -2 -88 -7 -89 -79 -22 -36 33 -58 57 -50 52 8 -4 0 8 -17 26 -18 19 -33 39 -33 45 0 5 -18 21 -40 34 -22 14 -40 30 -40 37 0 6 -8 14 -19 18 -10 3 -23 15 -28 28 -9 20 -4 25 51 59 34 21 66 38 71 38 6 0 62 -32 125 -71z m-854 -1 c-37 -56 -104 -93 -225 -127 -69 -19 -71 -19 -71 -1 0 19 25 50 41 50 5 0 29 16 54 35 25 19 62 37 83 40 20 3 48 10 62 14 14 5 35 9 48 10 21 1 22 0 8 -21z m1550 6 c-5 -13 -1 -14 23 -9 50 11 100 -5 142 -44 21 -21 47 -37 58 -36 15 1 22 -6 27 -27 3 -16 4 -31 2 -34 -9 -8 -194 60 -226 83 -39 29 -72 64 -72 75 0 4 12 8 26 8 20 0 25 -4 20 -16z m-1506 -135 c0 -6 9 -9 20 -6 27 7 33 -22 28 -136 -4 -89 -27 -167 -50 -167 -33 0 -57 228 -30 293 11 27 32 37 32 16z m1460 -39 c8 -30 7 -53 -4 -97 -22 -91 -26 -123 -16 -123 6 0 5 -10 -2 -25 -6 -14 -14 -25 -18 -25 -4 0 -18 24 -30 53 -26 60 -34 207 -12 229 9 9 12 8 12 -5 0 -27 15 -20 27 14 15 38 29 31 43 -21z m120 -110 c5 0 10 6 13 13 6 17 86 -60 103 -100 15 -34 19 -153 6 -153 -4 0 -8 -9 -9 -20 -1 -14 4 -20 18 -20 10 0 19 -4 19 -10 0 -24 -31 -6 -79 45 -73 77 -91 121 -89 220 0 44 3 68 5 53 2 -16 8 -28 13 -28z m-1720 -42 c0 -40 -7 -78 -19 -103 -20 -44 -86 -128 -119 -151 -20 -14 -23 -13 -34 11 -9 19 -9 28 -1 33 6 4 14 34 17 67 4 33 11 74 17 92 12 38 91 113 119 113 18 0 20 -6 20 -62z m938 15 c77 -41 132 -149 132 -263 0 -73 -14 -87 -52 -55 -33 28 -61 31 -97 11 -24 -13 -24 -14 -3 -25 11 -6 38 -15 59 -20 37 -9 37 -9 -19 -10 -32 -1 -58 -5 -58 -9 0 -20 28 -32 74 -32 l50 0 -61 -58 c-33 -32 -72 -80 -85 -107 l-25 -49 -18 30 c-46 75 -71 107 -106 139 -22 19 -39 37 -39 40 0 3 18 5 39 5 48 0 71 8 71 25 0 9 -21 14 -65 17 -83 5 -97 18 -100 95 -4 74 11 99 122 210 35 34 63 67 63 74 0 17 71 6 118 -18z"></path><path id="pse4CUK4N" d="M1447 1273 c-14 -14 -6 -23 21 -23 37 0 60 15 37 24 -22 8 -50 8 -58 -1z"></path><path id="pZvlj339A" d="M1410 1220 c0 -6 30 -10 71 -10 44 0 68 4 64 10 -3 6 -35 10 -71 10 -36 0 -64 -4 -64 -10z"></path><path id="pYZ8I0JkY" d="M1463 1163 c-26 -9 -12 -23 23 -23 19 0 33 4 30 9 -7 11 -37 19 -53 14z"></path><path id="px3LA8sHH" d="M1321 1017 c-37 -18 -37 -35 1 -42 38 -6 90 6 96 23 2 7 -8 16 -23 22 -34 13 -45 12 -74 -3z"></path><path id="poyBm2mus" d="M1450 870 c0 -16 26 -40 43 -40 9 0 16 30 11 45 -9 23 -54 19 -54 -5z"></path><path id="pXIgWZAR3" d="M3038 1776 c-94 -25 -171 -104 -185 -190 l-6 -36 74 0 c81 0 93 5 103 36 12 39 52 67 104 72 80 7 132 -30 132 -95 0 -58 -42 -90 -175 -133 -181 -59 -225 -104 -225 -230 0 -82 13 -113 66 -160 58 -51 97 -63 204 -64 85 -1 101 2 153 27 44 22 66 41 92 80 19 29 35 64 35 78 0 23 -5 27 -37 33 -21 3 -57 6 -80 6 -39 0 -44 -3 -58 -35 -17 -42 -62 -65 -125 -65 -56 0 -90 34 -90 90 0 56 28 80 143 120 158 57 226 100 248 158 15 40 10 134 -10 178 -51 112 -213 170 -363 130z"></path><path id="puAwCM0Da" d="M4475 1766 c-107 -50 -166 -147 -173 -282 -7 -125 14 -184 91 -259 67 -66 111 -85 192 -85 67 0 119 18 164 57 22 18 42 33 45 33 3 0 6 -18 6 -40 l0 -40 80 0 80 0 0 315 0 315 -80 0 -80 0 0 -46 0 -46 -39 35 c-74 67 -197 85 -286 43z m233 -133 c42 -20 69 -58 82 -119 30 -132 -43 -234 -168 -234 -90 0 -162 72 -162 163 0 166 113 252 248 190z"></path><path id="pCMDJrzEl" d="M6745 1777 c-94 -32 -154 -83 -180 -156 -25 -71 -25 -71 65 -71 l79 0 17 36 c25 53 67 76 132 71 71 -5 102 -34 102 -94 0 -61 -26 -82 -161 -128 -188 -64 -239 -114 -239 -233 0 -78 16 -118 65 -161 51 -44 85 -57 171 -66 160 -16 291 59 318 182 l7 31 -63 7 c-89 10 -111 5 -118 -25 -13 -54 -110 -88 -173 -59 -47 21 -61 89 -28 131 21 26 47 39 176 88 182 68 236 140 205 270 -27 114 -116 179 -257 186 -49 2 -93 -1 -118 -9z"></path><path id="p19airPH0e" d="M7421 1777 c-51 -16 -135 -99 -162 -159 -21 -46 -24 -69 -24 -163 0 -126 12 -160 84 -232 55 -55 103 -76 182 -81 74 -5 149 21 190 64 31 33 39 30 39 -16 l0 -40 80 0 80 0 0 315 0 315 -80 0 -80 0 0 -46 0 -46 -39 35 c-65 58 -183 82 -270 54z m217 -144 c43 -20 70 -60 82 -122 26 -136 -44 -231 -168 -231 -91 0 -162 72 -162 165 0 165 112 250 248 188z"></path><path id="pdQfQjVac" d="M8204 1771 c-63 -29 -120 -86 -151 -149 -24 -51 -27 -69 -28 -162 0 -91 3 -111 23 -150 90 -173 289 -223 433 -109 l39 31 0 -41 0 -41 80 0 80 0 0 315 0 315 -80 0 -80 0 0 -46 0 -47 -25 27 c-60 65 -211 95 -291 57z m193 -126 c33 -10 61 -26 77 -45 50 -60 60 -158 24 -230 -32 -62 -77 -90 -145 -90 -65 0 -103 18 -140 67 -25 32 -28 45 -28 107 1 107 42 172 124 196 36 11 32 12 88 -5z"></path><path id="p140MVqrrO" d="M3580 1355 l0 -425 75 0 75 0 0 145 c0 80 3 145 6 145 4 0 22 -13 40 -30 93 -81 280 -60 348 39 45 65 49 87 54 324 l5 227 -82 0 -81 0 0 -195 c0 -211 -5 -240 -53 -284 -21 -19 -37 -23 -89 -24 -74 -2 -110 17 -128 66 -6 18 -14 123 -17 235 l-6 202 -73 0 -74 0 0 -425z"></path><path id="ps2l0sHao" d="M5122 1358 l3 -423 77 -3 78 -3 2 243 3 243 104 -133 104 -132 99 0 99 0 -21 28 c-11 15 -70 83 -130 152 -60 69 -110 130 -110 135 0 6 59 77 130 158 72 82 130 150 130 153 0 2 -44 4 -97 4 l-98 -1 -100 -128 c-61 -79 -103 -124 -107 -117 -4 6 -8 64 -8 129 l0 117 -80 0 -80 0 2 -422z"></path><path id="pLeFJEtrl" d="M5920 1758 c-24 -13 -52 -35 -63 -49 -24 -33 -36 -133 -37 -306 l0 -133 -40 0 -40 0 0 -60 0 -60 40 0 40 0 0 -80 0 -80 80 0 80 0 0 80 0 80 70 0 70 0 0 60 0 60 -71 0 -71 0 4 176 c3 201 5 204 90 204 l48 0 0 65 0 65 -78 0 c-61 0 -87 -5 -122 -22z"></path><path id="p1HgoNDGww" d="M6250 1465 l0 -315 75 0 75 0 0 315 0 315 -75 0 -75 0 0 -315z"></path><path id="pMwj5HZ18" d="M8985 1769 c-43 -12 -95 -69 -106 -115 -4 -22 -9 -110 -9 -196 0 -86 -3 -163 -6 -172 -4 -10 -18 -16 -40 -16 l-34 0 0 -59 0 -60 38 -3 37 -3 3 -77 3 -78 74 0 75 0 0 80 0 80 75 0 75 0 0 60 0 60 -76 0 -77 0 7 171 c4 94 10 177 12 184 7 16 37 25 92 25 l42 0 0 65 0 65 -77 -1 c-43 0 -92 -5 -108 -10z"></path><path id="p14EkyiloS" d="M9292 1358 l3 -423 75 0 75 0 3 142 3 142 44 -34 c50 -38 108 -51 187 -42 101 12 176 79 197 177 6 28 11 143 11 255 l0 205 -73 0 -74 0 -6 -206 c-6 -186 -8 -208 -27 -240 -29 -45 -53 -57 -122 -58 -68 -1 -107 22 -125 75 -8 22 -12 106 -12 232 l-1 197 -80 0 -80 0 2 -422z"></path><path id="pn2oRITKw" d="M10060 1465 l0 -315 75 0 75 0 0 315 0 315 -75 0 -75 0 0 -315z"></path><path id="p1FZaVpcc9" d="M6255 1035 c-46 -45 -22 -134 41 -149 39 -10 92 11 109 44 22 43 18 68 -14 101 -39 39 -100 41 -136 4z"></path><path id="pg7u5Qkxw" d="M10065 1035 c-50 -49 -24 -133 47 -150 61 -15 127 49 112 109 -16 64 -112 89 -159 41z"></path></g></g><g id="l2Vm9dnaNlCXbID9QpE9wBJ" fill="rgb(86,155,114)" style="transform: none;"><g><path id="phMCmG391" d="M950 1481 c0 -11 -33 -86 -74 -168 -41 -81 -82 -174 -92 -206 -10 -31 -23 -56 -28 -54 -6 2 -18 30 -27 63 -9 32 -20 59 -26 59 -5 0 -23 -16 -39 -35 -16 -19 -57 -68 -91 -107 -36 -42 -63 -82 -63 -95 0 -66 179 -317 296 -414 483 -401 1169 -307 1536 211 68 95 120 203 108 224 -5 9 -35 45 -67 81 -32 36 -73 83 -90 105 -18 21 -35 37 -38 34 -2 -3 -13 -32 -23 -65 -10 -32 -22 -58 -27 -57 -5 1 -21 35 -36 75 -15 40 -56 130 -93 200 -36 70 -66 134 -66 142 0 8 -6 16 -14 19 -27 11 -47 -18 -58 -84 l-11 -66 37 -48 c104 -136 139 -301 101 -478 -21 -101 -68 -180 -160 -273 -128 -129 -239 -174 -431 -174 -182 0 -293 47 -425 180 -113 114 -169 243 -169 388 1 124 50 272 120 360 l37 46 -14 65 c-14 64 -32 91 -60 91 -7 0 -13 -9 -13 -19z"></path></g></g><g id="l2mGFTQS70TVWCV8eSmfbeu" fill="rgb(198,195,168)" style="transform: none;"><g><path id="p8Cq3O53t" d="M1370 2380 c-11 -7 -11 -11 3 -24 8 -9 23 -16 32 -16 8 0 18 -7 21 -15 4 -8 15 -15 25 -15 10 0 19 -4 19 -10 0 -5 9 -10 20 -10 11 0 23 -7 26 -15 4 -8 13 -15 21 -15 8 0 11 -5 8 -10 -3 -6 1 -13 9 -16 21 -8 101 -87 98 -96 -1 -5 7 -8 18 -8 14 0 20 -6 18 -17 -2 -11 5 -19 17 -21 22 -5 46 -32 39 -44 -3 -5 0 -8 6 -8 6 0 8 -5 5 -11 -4 -6 2 -13 14 -16 11 -3 18 -10 15 -15 -3 -5 4 -12 16 -15 13 -3 19 -11 16 -19 -3 -8 -1 -14 4 -14 6 0 10 -7 10 -15 0 -8 7 -15 15 -15 13 0 19 -12 16 -32 0 -4 8 -12 19 -18 11 -6 18 -15 15 -19 -3 -5 2 -12 11 -15 8 -3 12 -10 9 -16 -3 -5 1 -10 10 -10 11 0 15 -5 11 -15 -3 -8 -1 -15 5 -15 6 0 8 -4 5 -9 -3 -5 1 -12 10 -15 8 -3 13 -10 10 -15 -3 -5 1 -12 10 -15 8 -3 13 -9 11 -13 -3 -5 1 -13 7 -19 10 -9 18 -8 34 5 l22 16 -66 100 c-109 162 -150 213 -293 355 -178 176 -274 239 -321 210z"></path><path id="p2wSjOTA4" d="M1740 2235 c80 -80 146 -145 147 -145 2 0 3 49 3 109 l0 109 -47 16 c-57 19 -212 56 -233 56 -8 0 50 -65 130 -145z"></path><path id="pVjq31GXM" d="M1133 2327 c-22 -11 -21 -13 30 -59 28 -27 64 -51 80 -54 15 -4 27 -12 27 -20 0 -7 10 -20 23 -29 12 -8 22 -19 22 -24 0 -12 60 -61 75 -61 7 0 10 -7 6 -15 -3 -9 1 -18 9 -21 8 -4 12 -10 9 -15 -3 -5 2 -9 10 -9 9 0 16 -5 16 -11 0 -5 -6 -7 -12 -3 -7 4 -2 -5 11 -19 14 -15 27 -27 29 -27 3 0 -3 9 -14 21 -18 20 -18 20 9 14 17 -5 27 -3 27 3 0 15 -142 192 -220 275 -65 70 -87 79 -137 54z"></path><path id="p9an4r1zv" d="M1965 2247 c-2 -6 -6 -63 -9 -125 -4 -89 -2 -120 9 -142 24 -47 32 -42 25 13 -8 66 -6 229 3 244 4 6 0 14 -8 17 -9 3 -17 0 -20 -7z"></path><path id="p11fGcon8o" d="M1001 2083 c-16 -56 -14 -58 20 -24 25 26 29 34 19 46 -19 23 -28 18 -39 -22z"></path><path id="p17mtGEM1f" d="M1619 2070 c0 -3 -2 -13 -4 -22 -2 -9 4 -19 12 -22 8 -3 11 -10 8 -16 -3 -5 -1 -10 5 -10 6 0 8 -4 5 -10 -3 -5 -2 -10 3 -10 11 0 40 -41 44 -61 2 -7 11 -22 20 -33 10 -10 15 -22 13 -26 -3 -5 2 -11 11 -14 8 -3 12 -10 9 -16 -3 -5 -1 -10 5 -10 6 0 8 -4 5 -10 -3 -5 -1 -10 5 -10 6 0 8 -4 5 -10 -3 -5 -1 -10 5 -10 7 0 10 -7 6 -15 -3 -8 -1 -15 4 -15 6 0 9 -3 9 -7 -3 -21 2 -33 16 -33 14 0 19 -12 16 -32 0 -5 8 -8 19 -8 11 0 20 3 20 8 0 4 -39 87 -87 184 -72 146 -92 179 -113 185 -14 3 -28 11 -32 17 -4 6 -8 9 -9 6z"></path><path id="pP07QapQk" d="M2330 1938 c0 -10 -4 -18 -8 -18 -5 0 -8 -18 -8 -40 0 -31 5 -41 21 -46 11 -4 27 -12 35 -19 8 -7 25 -15 38 -18 22 -5 21 -4 -10 53 -17 32 -40 69 -50 82 -15 19 -18 20 -18 6z"></path><path id="pUjquCosy" d="M582 1885 c-29 -46 -29 -69 1 -59 29 9 65 34 49 34 -6 0 -11 3 -10 8 0 4 -3 17 -8 29 -9 21 -10 21 -32 -12z"></path><path id="pUfJOGWoC" d="M530 1637 c-45 -24 -85 -67 -79 -86 3 -7 29 1 69 21 36 17 76 33 89 35 29 5 81 34 81 45 0 4 -26 8 -58 8 -42 0 -71 -7 -102 -23z"></path><path id="pCDfiHLdj" d="M2274 1640 c0 -15 7 -20 28 -20 15 0 28 -4 28 -10 0 -5 18 -14 40 -20 21 -6 42 -15 45 -20 3 -6 15 -10 26 -10 11 0 18 -4 14 -9 -3 -5 8 -9 25 -9 41 1 39 23 -9 68 -41 39 -74 50 -150 50 -40 0 -47 -3 -47 -20z"></path><path id="p19iAem8aB" d="M1311 1584 c7 -8 25 -22 41 -30 23 -12 28 -12 28 -1 0 7 -16 21 -35 30 -44 21 -51 21 -34 1z"></path><path id="p16cjMJDKR" d="M728 1548 c-38 -59 -46 -120 -27 -208 14 -66 29 -64 29 3 0 60 17 101 57 141 l26 27 -20 27 c-26 35 -47 38 -65 10z"></path><path id="pdVrv6Ix3" d="M1274 1561 c3 -5 39 -26 78 -46 40 -20 89 -49 108 -64 55 -43 68 -47 33 -10 -18 19 -33 39 -33 44 0 13 -69 60 -76 52 -3 -3 -21 1 -40 9 -19 8 -34 11 -34 7 0 -4 -5 -2 -12 5 -14 14 -32 16 -24 3z"></path><path id="p1AbdyKuZ0" d="M2186 1557 c-17 -14 -53 -92 -37 -82 6 3 11 0 11 -7 0 -7 9 -19 20 -26 12 -7 18 -17 15 -22 -3 -6 -1 -10 5 -10 9 0 11 -25 9 -85 -2 -47 -1 -85 3 -85 12 0 34 51 48 109 15 63 8 140 -17 181 -20 35 -36 43 -57 27z"></path><path id="pEYKYJKWQ" d="M575 1408 c-56 -40 -97 -83 -112 -116 -14 -33 -21 -177 -9 -189 10 -10 14 0 19 42 5 45 25 104 41 122 6 7 27 33 46 58 19 25 43 45 52 45 20 0 21 4 12 38 -8 27 -11 27 -49 0z"></path><path id="p9taBTiR0" d="M2340 1389 c0 -21 9 -38 30 -56 17 -13 28 -29 25 -33 -3 -5 4 -14 15 -20 11 -6 18 -15 15 -21 -4 -5 -1 -9 5 -9 6 0 8 -4 5 -10 -3 -5 -1 -10 5 -10 6 0 8 -4 5 -10 -3 -5 -2 -10 3 -10 5 0 7 -11 4 -25 -2 -14 0 -25 4 -25 5 0 8 -20 7 -45 -2 -42 0 -45 23 -45 24 0 24 1 24 95 0 117 -11 146 -80 208 -62 56 -90 61 -90 16z"></path><path id="pxvlFbero" d="M1382 1312 c-50 -33 -89 -83 -102 -131 -13 -46 -8 -48 20 -9 13 18 52 61 87 95 35 34 63 64 63 67 0 14 -30 4 -68 -22z"></path></g></g></svg>